<?xml version="1.0" encoding="UTF-8" standalone="no"?>
<!-- Created with Inkscape (http://www.inkscape.org/) -->

<svg
   version="1.1"
   id="svg1"
   width="364"
   height="269.33334"
   viewBox="0 0 364 269.33334"
   xmlns="http://www.w3.org/2000/svg"
   xmlns:svg="http://www.w3.org/2000/svg">
  <defs
     id="defs1" />
  <g
     id="g1">
    <rect
       id="rect1"
       x="0"
       y="0"
       width="1"
       height="1"
       style="fill:#ffffff;fill-opacity:1;fill-rule:nonzero"
       transform="matrix(359.68,0,0,-265.76,2.2773333,267.58933)" />
    <path
       id="path1"
       d="m 339.602,1483.6 240,-480"
       style="fill:none;stroke:#231f20;stroke-width:10;stroke-linecap:butt;stroke-linejoin:miter;stroke-miterlimit:10;stroke-dasharray:none;stroke-opacity:1"
       transform="matrix(0.13333333,0,0,-0.13333333,0,269.33333)" />
    <path
       id="path2"
       d="m 328.418,1505.96 4.473,-53.66 13.418,17.88 h 22.359 z"
       style="fill:#231f20;fill-opacity:1;fill-rule:nonzero;stroke:#231f20;stroke-width:10;stroke-linecap:butt;stroke-linejoin:miter;stroke-miterlimit:10;stroke-dasharray:none;stroke-opacity:1;paint-order:stroke fill markers"
       transform="matrix(0.13333333,0,0,-0.13333333,0,269.33333)" />
    <path
       id="path3"
       d="m 99.6016,1963.6 240.0004,-480"
       style="fill:none;stroke:#231f20;stroke-width:10;stroke-linecap:butt;stroke-linejoin:miter;stroke-miterlimit:10;stroke-dasharray:none;stroke-opacity:1"
       transform="matrix(0.13333333,0,0,-0.13333333,0,269.33333)" />
    <path
       id="path4"
       d="M 339.602,523.602 99.6016,43.6016"
       style="fill:none;stroke:#231f20;stroke-width:10;stroke-linecap:butt;stroke-linejoin:miter;stroke-miterlimit:10;stroke-dasharray:none;stroke-opacity:1"
       transform="matrix(0.13333333,0,0,-0.13333333,0,269.33333)" />
    <path
       id="path5"
       d="m 350.781,545.961 -40.25,-35.777 h 22.36 l 13.418,-17.887 z"
       style="fill:#231f20;fill-opacity:1;fill-rule:nonzero;stroke:#231f20;stroke-width:10;stroke-linecap:butt;stroke-linejoin:miter;stroke-miterlimit:10;stroke-dasharray:none;stroke-opacity:1;paint-order:stroke fill markers"
       transform="matrix(0.13333333,0,0,-0.13333333,0,269.33333)" />
    <path
       id="path6"
       d="m 579.602,1003.6 -240,-479.998"
       style="fill:none;stroke:#231f20;stroke-width:10;stroke-linecap:butt;stroke-linejoin:miter;stroke-miterlimit:10;stroke-dasharray:none;stroke-opacity:1"
       transform="matrix(0.13333333,0,0,-0.13333333,0,269.33333)" />
    <path
       id="path7"
       d="m 819.602,1003.6 h -240"
       style="fill:none;stroke:#231f20;stroke-width:10;stroke-linecap:butt;stroke-linejoin:miter;stroke-miterlimit:10;stroke-dasharray:80, 80;stroke-dashoffset:0;stroke-opacity:1"
       transform="matrix(0.13333333,0,0,-0.13333333,0,269.33333)" />
    <path
       id="path8"
       d="m 844.602,1003.6 -50,20 10,-20 -10,-19.998 z"
       style="fill:#231f20;fill-opacity:1;fill-rule:nonzero;stroke:#231f20;stroke-width:10;stroke-linecap:butt;stroke-linejoin:miter;stroke-miterlimit:10;stroke-dasharray:none;stroke-opacity:1;paint-order:stroke fill markers"
       transform="matrix(0.13333333,0,0,-0.13333333,0,269.33333)" />
    <path
       id="path9"
       d="M 1059.6,1003.6 H 819.602"
       style="fill:none;stroke:#231f20;stroke-width:10;stroke-linecap:butt;stroke-linejoin:miter;stroke-miterlimit:10;stroke-dasharray:80, 80;stroke-dashoffset:0;stroke-opacity:1"
       transform="matrix(0.13333333,0,0,-0.13333333,0,269.33333)" />
    <path
       id="path10"
       d="m 1059.6,1003.6 c 0,176.73 143.27,320 320,320"
       style="fill:none;stroke:#231f20;stroke-width:10;stroke-linecap:butt;stroke-linejoin:miter;stroke-miterlimit:10;stroke-dasharray:100.531, 100.531;stroke-dashoffset:0;stroke-opacity:1"
       transform="matrix(0.13333333,0,0,-0.13333333,0,269.33333)" />
    <path
       id="path11"
       d="m 1379.6,1323.6 c 176.73,0 320,-143.27 320,-320"
       style="fill:none;stroke:#231f20;stroke-width:10;stroke-linecap:butt;stroke-linejoin:miter;stroke-miterlimit:10;stroke-dasharray:100.531, 100.531;stroke-dashoffset:0;stroke-opacity:1"
       transform="matrix(0.13333333,0,0,-0.13333333,0,269.33333)" />
    <path
       id="path12"
       d="m 1404.6,1323.6 -50,-20 10,20 -10,20 z"
       style="fill:#231f20;fill-opacity:1;fill-rule:nonzero;stroke:#231f20;stroke-width:10;stroke-linecap:butt;stroke-linejoin:miter;stroke-miterlimit:10;stroke-dasharray:none;stroke-opacity:1;paint-order:stroke fill markers"
       transform="matrix(0.13333333,0,0,-0.13333333,0,269.33333)" />
    <path
       id="path13"
       d="m 1699.6,1003.6 c 0,-176.729 -143.27,-319.998 -320,-319.998"
       style="fill:none;stroke:#231f20;stroke-width:10;stroke-linecap:butt;stroke-linejoin:miter;stroke-miterlimit:10;stroke-dasharray:100.531, 100.531;stroke-dashoffset:0;stroke-opacity:1"
       transform="matrix(0.13333333,0,0,-0.13333333,0,269.33333)" />
    <path
       id="path14"
       d="m 1379.6,683.602 c -176.73,0 -320,143.269 -320,319.998"
       style="fill:none;stroke:#231f20;stroke-width:10;stroke-linecap:butt;stroke-linejoin:miter;stroke-miterlimit:10;stroke-dasharray:100.531, 100.531;stroke-dashoffset:0;stroke-opacity:1"
       transform="matrix(0.13333333,0,0,-0.13333333,0,269.33333)" />
    <path
       id="path15"
       d="m 1354.6,683.602 50,20 -10,-20 10,-20 z"
       style="fill:#231f20;fill-opacity:1;fill-rule:nonzero;stroke:#231f20;stroke-width:10;stroke-linecap:butt;stroke-linejoin:miter;stroke-miterlimit:10;stroke-dasharray:none;stroke-opacity:1;paint-order:stroke fill markers"
       transform="matrix(0.13333333,0,0,-0.13333333,0,269.33333)" />
    <path
       id="path16"
       d="m 1939.6,1003.6 h -240"
       style="fill:none;stroke:#231f20;stroke-width:10;stroke-linecap:butt;stroke-linejoin:miter;stroke-miterlimit:10;stroke-dasharray:80, 80;stroke-dashoffset:0;stroke-opacity:1"
       transform="matrix(0.13333333,0,0,-0.13333333,0,269.33333)" />
    <path
       id="path17"
       d="m 1964.6,1003.6 -50,20 10,-20 -10,-19.998 z"
       style="fill:#231f20;fill-opacity:1;fill-rule:nonzero;stroke:#231f20;stroke-width:10;stroke-linecap:butt;stroke-linejoin:miter;stroke-miterlimit:10;stroke-dasharray:none;stroke-opacity:1;paint-order:stroke fill markers"
       transform="matrix(0.13333333,0,0,-0.13333333,0,269.33333)" />
    <path
       id="path18"
       d="m 2179.6,1003.6 h -240"
       style="fill:none;stroke:#231f20;stroke-width:10;stroke-linecap:butt;stroke-linejoin:miter;stroke-miterlimit:10;stroke-dasharray:80, 80;stroke-dashoffset:0;stroke-opacity:1"
       transform="matrix(0.13333333,0,0,-0.13333333,0,269.33333)" />
    <path
       id="path19"
       d="m 2419.6,523.602 240,-480.0004"
       style="fill:none;stroke:#231f20;stroke-width:10;stroke-linecap:butt;stroke-linejoin:miter;stroke-miterlimit:10;stroke-dasharray:none;stroke-opacity:1"
       transform="matrix(0.13333333,0,0,-0.13333333,0,269.33333)" />
    <path
       id="path20"
       d="m 2408.42,545.961 4.47,-53.664 13.42,17.887 h 22.36 z"
       style="fill:#231f20;fill-opacity:1;fill-rule:nonzero;stroke:#231f20;stroke-width:10;stroke-linecap:butt;stroke-linejoin:miter;stroke-miterlimit:10;stroke-dasharray:none;stroke-opacity:1;paint-order:stroke fill markers"
       transform="matrix(0.13333333,0,0,-0.13333333,0,269.33333)" />
    <path
       id="path21"
       d="m 2179.6,1003.6 240,-479.998"
       style="fill:none;stroke:#231f20;stroke-width:10;stroke-linecap:butt;stroke-linejoin:miter;stroke-miterlimit:10;stroke-dasharray:none;stroke-opacity:1"
       transform="matrix(0.13333333,0,0,-0.13333333,0,269.33333)" />
    <path
       id="path22"
       d="m 2419.6,1483.6 -240,-480"
       style="fill:none;stroke:#231f20;stroke-width:10;stroke-linecap:butt;stroke-linejoin:miter;stroke-miterlimit:10;stroke-dasharray:none;stroke-opacity:1"
       transform="matrix(0.13333333,0,0,-0.13333333,0,269.33333)" />
    <path
       id="path23"
       d="m 2430.78,1505.96 -40.25,-35.78 h 22.36 l 13.42,-17.88 z"
       style="fill:#231f20;fill-opacity:1;fill-rule:nonzero;stroke:#231f20;stroke-width:10;stroke-linecap:butt;stroke-linejoin:miter;stroke-miterlimit:10;stroke-dasharray:none;stroke-opacity:1;paint-order:stroke fill markers"
       transform="matrix(0.13333333,0,0,-0.13333333,0,269.33333)" />
    <path
       id="path24"
       d="m 2659.6,1963.6 -240,-480"
       style="fill:none;stroke:#231f20;stroke-width:10;stroke-linecap:butt;stroke-linejoin:miter;stroke-miterlimit:10;stroke-dasharray:none;stroke-opacity:1"
       transform="matrix(0.13333333,0,0,-0.13333333,0,269.33333)" />
    <g
       id="g24"
       aria-label="p&#10;1&#10;p&#10;2&#10;p&#10;′&#10;1&#10;p&#10;′&#10;2&#10;qq&#10;k&#10;k−q"
       transform="matrix(1.3333333,0,0,1.3333333,54.6136,216.05307)">
      <path
         id="path25"
         d="m 0.62085469,1.8176219 c -0.10546875,0.4335937 -0.1640625,0.5507812 -0.75,0.5507812 -0.17578125,0 -0.31640625,0 -0.31640625,0.2695313 0,0.035156 0.0117188,0.140625 0.17578125,0.140625 0.1875,0 0.38671875,-0.023437 0.57421875,-0.023437 h 0.609375 c 0.30468746,0 1.03124996,0.023437 1.33593746,0.023437 0.09375,0 0.2578125,0 0.2578125,-0.2578125 0,-0.1523438 -0.09375,-0.1523438 -0.3398437,-0.1523438 -0.65625,0 -0.703125,-0.1054687 -0.703125,-0.2109375 0,-0.1757812 0.6445312,-2.64843748 0.7265625,-2.97656248 0.1640625,0.41015625 0.5507812,0.9609375 1.2890625,0.9609375 1.6289062,0 3.375,-2.10937502 3.375,-4.21875002 0,-1.3125 -0.75,-2.25 -1.8164063,-2.25 -0.9257812,0 -1.6992187,0.890625 -1.8515625,1.0898438 -0.1171875,-0.7148438 -0.6796875,-1.0898438 -1.2539062,-1.0898438 -0.4101563,0 -0.7382813,0.1992188 -1.01953126,0.75 -0.2578125,0.515625 -0.45703125,1.3945313 -0.45703125,1.4414063 0,0.058594 0.0585938,0.140625 0.1640625,0.140625 0.10546875,0 0.12890625,-0.023437 0.2109375,-0.3515625 0.21093751,-0.84375 0.49218751,-1.6875 1.06640621,-1.6875 0.328125,0 0.4453125,0.2226562 0.4453125,0.65625 0,0.3398437 -0.046875,0.4921875 -0.1054687,0.75 z M 3.0935109,-4.4753469 c 0.1054688,-0.3984375 0.5039063,-0.8203125 0.7382813,-1.0195312 0.1523437,-0.140625 0.6328125,-0.5390625 1.171875,-0.5390625 0.6328125,0 0.9257812,0.6328125 0.9257812,1.3710937 0,0.6914063 -0.4101562,2.3085938 -0.7617187,3.0585938 -0.3632813,0.77343747 -1.0195313,1.46484372 -1.6875,1.46484372 -0.9726563,0 -1.125,-1.24218752 -1.125,-1.28906252 0,-0.046875 0.023437,-0.1640625 0.035156,-0.234375 z m 0,0"
         style="fill:#231f20;fill-opacity:1;fill-rule:nonzero;stroke:none" />
      <path
         id="path26"
         d="m 10.010503,-4.2146047 c 0,-0.234375 0,-0.2578125 -0.2343749,-0.2578125 -0.609375,0.6328125 -1.4882812,0.6328125 -1.8046875,0.6328125 v 0.3164063 c 0.1992188,0 0.7851563,0 1.3007813,-0.2578125 v 5.15625 c 0,0.3515625 -0.035156,0.4804687 -0.9257813,0.4804687 H 8.0300344 v 0.3046875 c 0.3515625,-0.035156 1.2070312,-0.035156 1.6054687,-0.035156 0.3984379,0 1.2656249,0 1.6171879,0.035156 V 1.8557078 h -0.316407 c -0.902343,0 -0.925781,-0.1171875 -0.925781,-0.4804687 z m 0,0"
         style="fill:#231f20;fill-opacity:1;fill-rule:nonzero;stroke:none" />
      <path
         id="path27"
         d="m 175.94214,1.8176219 c -0.10546,0.4335937 -0.16406,0.5507812 -0.75,0.5507812 -0.17578,0 -0.3164,0 -0.3164,0.2695313 0,0.035156 0.0117,0.140625 0.17578,0.140625 0.1875,0 0.38672,-0.023437 0.57422,-0.023437 h 0.60937 c 0.30469,0 1.03125,0.023437 1.33594,0.023437 0.0937,0 0.25781,0 0.25781,-0.2578125 0,-0.1523438 -0.0937,-0.1523438 -0.33984,-0.1523438 -0.65625,0 -0.70313,-0.1054687 -0.70313,-0.2109375 0,-0.1757812 0.64454,-2.64843748 0.72657,-2.97656248 0.16406,0.41015625 0.55078,0.9609375 1.28906,0.9609375 1.62891,0 3.375,-2.10937502 3.375,-4.21875002 0,-1.3125 -0.75,-2.25 -1.81641,-2.25 -0.92578,0 -1.69922,0.890625 -1.85156,1.0898438 -0.11719,-0.7148438 -0.67969,-1.0898438 -1.25391,-1.0898438 -0.41015,0 -0.73828,0.1992188 -1.01953,0.75 -0.25781,0.515625 -0.45703,1.3945313 -0.45703,1.4414063 0,0.058594 0.0586,0.140625 0.16406,0.140625 0.10547,0 0.12891,-0.023437 0.21094,-0.3515625 0.21094,-0.84375 0.49219,-1.6875 1.06641,-1.6875 0.32812,0 0.44531,0.2226562 0.44531,0.65625 0,0.3398437 -0.0469,0.4921875 -0.10547,0.75 z m 2.47266,-6.2929688 c 0.10547,-0.3984375 0.50391,-0.8203125 0.73828,-1.0195312 0.15235,-0.140625 0.63281,-0.5390625 1.17188,-0.5390625 0.63281,0 0.92578,0.6328125 0.92578,1.3710937 0,0.6914063 -0.41016,2.3085938 -0.76172,3.0585938 -0.36328,0.77343747 -1.01953,1.46484372 -1.6875,1.46484372 -0.97266,0 -1.125,-1.24218752 -1.125,-1.28906252 0,-0.046875 0.0234,-0.1640625 0.0352,-0.234375 z m 0,0"
         style="fill:#231f20;fill-opacity:1;fill-rule:nonzero;stroke:none" />
      <path
         id="path28"
         d="m 183.6648,1.3986766 1.05469,-1.03125004 c 1.55859,-1.37109376 2.15625,-1.91015626 2.15625,-2.90624996 0,-1.1367188 -0.90235,-1.9335938 -2.1211,-1.9335938 -1.125,0 -1.85156,0.9140625 -1.85156,1.8046875 0,0.5507813 0.49219,0.5507813 0.52735,0.5507813 0.16406,0 0.51562,-0.1171875 0.51562,-0.5273438 0,-0.2578125 -0.1875,-0.515625 -0.52734,-0.515625 -0.082,0 -0.10547,0 -0.12891,0.011719 0.22266,-0.6445313 0.76172,-1.0195313 1.33594,-1.0195313 0.91406,0 1.33594,0.8085938 1.33594,1.6289063 0,0.796875 -0.49219,1.58203121 -1.04297,2.20312496 l -1.91016,2.13281254 c -0.10547,0.1054687 -0.10547,0.1289062 -0.10547,0.3632812 h 3.69141 l 0.28125,-1.73437499 h -0.25781 c -0.0469,0.3046875 -0.11719,0.73828129 -0.21094,0.89062499 -0.0703,0.082031 -0.72656,0.082031 -0.94922,0.082031 z m 0,0"
         style="fill:#231f20;fill-opacity:1;fill-rule:nonzero;stroke:none" />
      <path
         id="path29"
         d="m 0.62085469,-110.62378 c -0.10546875,0.43359 -0.1640625,0.55078 -0.75,0.55078 -0.17578125,0 -0.31640625,0 -0.31640625,0.26953 0,0.0352 0.0117188,0.14062 0.17578125,0.14062 0.1875,0 0.38671875,-0.0234 0.57421875,-0.0234 h 0.609375 c 0.30468746,0 1.03124996,0.0234 1.33593746,0.0234 0.09375,0 0.2578125,0 0.2578125,-0.25781 0,-0.15234 -0.09375,-0.15234 -0.3398437,-0.15234 -0.65625,0 -0.703125,-0.10547 -0.703125,-0.21094 0,-0.17578 0.6445312,-2.64844 0.7265625,-2.97656 0.1640625,0.41015 0.5507812,0.96093 1.2890625,0.96093 1.6289062,0 3.375,-2.10937 3.375,-4.21875 0,-1.3125 -0.75,-2.25 -1.8164063,-2.25 -0.9257812,0 -1.6992187,0.89063 -1.8515625,1.08985 -0.1171875,-0.71485 -0.6796875,-1.08985 -1.2539062,-1.08985 -0.4101563,0 -0.7382813,0.19922 -1.01953126,0.75 -0.2578125,0.51563 -0.45703125,1.39454 -0.45703125,1.44141 0,0.0586 0.0585938,0.14063 0.1640625,0.14063 0.10546875,0 0.12890625,-0.0234 0.2109375,-0.35157 0.21093751,-0.84375 0.49218751,-1.6875 1.06640621,-1.6875 0.328125,0 0.4453125,0.22266 0.4453125,0.65625 0,0.33985 -0.046875,0.49219 -0.1054687,0.75 z m 2.47265621,-6.29297 c 0.1054688,-0.39844 0.5039063,-0.82032 0.7382813,-1.01953 0.1523437,-0.14063 0.6328125,-0.53907 1.171875,-0.53907 0.6328125,0 0.9257812,0.63282 0.9257812,1.3711 0,0.6914 -0.4101562,2.30859 -0.7617187,3.05859 -0.3632813,0.77344 -1.0195313,1.46484 -1.6875,1.46484 -0.9726563,0 -1.125,-1.24218 -1.125,-1.28906 0,-0.0469 0.023437,-0.16406 0.035156,-0.23437 z m 0,0"
         style="fill:#231f20;fill-opacity:1;fill-rule:nonzero;stroke:none" />
      <path
         id="path30"
         d="m 9.6003469,-122.33375 c 0.046875,-0.11718 0.09375,-0.21093 0.09375,-0.30468 0,-0.29297 -0.2578125,-0.52735 -0.5742188,-0.52735 -0.28125,0 -0.4570312,0.1875 -0.5273437,0.44532 l -1.1835938,4.35937 c 0,0.0117 -0.035156,0.12891 -0.035156,0.12891 0,0.11718 0.2578125,0.1875 0.3398437,0.1875 0.058594,0 0.070312,-0.0352 0.1289063,-0.16407 z m 0,0"
         style="fill:#231f20;fill-opacity:1;fill-rule:nonzero;stroke:none" />
      <path
         id="path31"
         d="m 10.010503,-115.2146 c 0,-0.23438 0,-0.25782 -0.2343749,-0.25782 -0.609375,0.63282 -1.4882812,0.63282 -1.8046875,0.63282 v 0.3164 c 0.1992188,0 0.7851563,0 1.3007813,-0.25781 v 5.15625 c 0,0.35156 -0.035156,0.48047 -0.9257813,0.48047 H 8.0300344 v 0.30469 c 0.3515625,-0.0352 1.2070312,-0.0352 1.6054687,-0.0352 0.3984379,0 1.2656249,0 1.6171879,0.0352 v -0.30469 h -0.316407 c -0.902343,0 -0.925781,-0.11719 -0.925781,-0.48047 z m 0,0"
         style="fill:#231f20;fill-opacity:1;fill-rule:nonzero;stroke:none" />
      <path
         id="path32"
         d="m 175.93921,-110.62378 c -0.10546,0.43359 -0.16406,0.55078 -0.75,0.55078 -0.17578,0 -0.3164,0 -0.3164,0.26953 0,0.0352 0.0117,0.14062 0.17578,0.14062 0.1875,0 0.38672,-0.0234 0.57422,-0.0234 h 0.60937 c 0.30469,0 1.03125,0.0234 1.33594,0.0234 0.0937,0 0.25781,0 0.25781,-0.25781 0,-0.15234 -0.0937,-0.15234 -0.33984,-0.15234 -0.65625,0 -0.70313,-0.10547 -0.70313,-0.21094 0,-0.17578 0.64454,-2.64844 0.72657,-2.97656 0.16406,0.41015 0.55078,0.96093 1.28906,0.96093 1.62891,0 3.375,-2.10937 3.375,-4.21875 0,-1.3125 -0.75,-2.25 -1.81641,-2.25 -0.92578,0 -1.69922,0.89063 -1.85156,1.08985 -0.11719,-0.71485 -0.67969,-1.08985 -1.25391,-1.08985 -0.41015,0 -0.73828,0.19922 -1.01953,0.75 -0.25781,0.51563 -0.45703,1.39454 -0.45703,1.44141 0,0.0586 0.0586,0.14063 0.16406,0.14063 0.10547,0 0.12891,-0.0234 0.21094,-0.35157 0.21094,-0.84375 0.49219,-1.6875 1.06641,-1.6875 0.32812,0 0.44531,0.22266 0.44531,0.65625 0,0.33985 -0.0469,0.49219 -0.10547,0.75 z m 2.47266,-6.29297 c 0.10547,-0.39844 0.50391,-0.82032 0.73828,-1.01953 0.15235,-0.14063 0.63281,-0.53907 1.17188,-0.53907 0.63281,0 0.92578,0.63282 0.92578,1.3711 0,0.6914 -0.41016,2.30859 -0.76172,3.05859 -0.36328,0.77344 -1.01953,1.46484 -1.6875,1.46484 -0.97266,0 -1.125,-1.24218 -1.125,-1.28906 0,-0.0469 0.0234,-0.16406 0.0352,-0.23437 z m 0,0"
         style="fill:#231f20;fill-opacity:1;fill-rule:nonzero;stroke:none" />
      <path
         id="path33"
         d="m 184.91871,-122.33375 c 0.0469,-0.11718 0.0937,-0.21093 0.0937,-0.30468 0,-0.29297 -0.25782,-0.52735 -0.57422,-0.52735 -0.28125,0 -0.45703,0.1875 -0.52735,0.44532 l -1.18359,4.35937 c 0,0.0117 -0.0352,0.12891 -0.0352,0.12891 0,0.11718 0.25782,0.1875 0.33985,0.1875 0.0586,0 0.0703,-0.0352 0.1289,-0.16407 z m 0,0"
         style="fill:#231f20;fill-opacity:1;fill-rule:nonzero;stroke:none" />
      <path
         id="path34"
         d="m 183.6648,-109.60132 1.05469,-1.03125 c 1.55859,-1.3711 2.15625,-1.91016 2.15625,-2.90625 0,-1.13672 -0.90235,-1.9336 -2.1211,-1.9336 -1.125,0 -1.85156,0.91407 -1.85156,1.80469 0,0.55078 0.49219,0.55078 0.52735,0.55078 0.16406,0 0.51562,-0.11719 0.51562,-0.52734 0,-0.25781 -0.1875,-0.51563 -0.52734,-0.51563 -0.082,0 -0.10547,0 -0.12891,0.0117 0.22266,-0.64453 0.76172,-1.01953 1.33594,-1.01953 0.91406,0 1.33594,0.80859 1.33594,1.62891 0,0.79687 -0.49219,1.58203 -1.04297,2.20312 l -1.91016,2.13281 c -0.10547,0.10547 -0.10547,0.12891 -0.10547,0.36329 h 3.69141 l 0.28125,-1.73438 h -0.25781 c -0.0469,0.30469 -0.11719,0.73828 -0.21094,0.89063 -0.0703,0.082 -0.72656,0.082 -0.94922,0.082 z m 0,0"
         style="fill:#231f20;fill-opacity:1;fill-rule:nonzero;stroke:none" />
      <path
         id="path35"
         d="m 38.246831,-85.988042 c 0,-0.07031 -0.05859,-0.128906 -0.128906,-0.128906 -0.117188,0 -0.679688,0.527343 -0.949219,1.019531 -0.257812,-0.644531 -0.703125,-1.03125 -1.324219,-1.03125 -1.617187,0 -3.363281,2.097656 -3.363281,4.21875 0,1.417969 0.832031,2.25 1.804688,2.25 0.761718,0 1.394531,-0.574219 1.6875,-0.902344 l 0.02344,0.01172 -0.550781,2.15625 -0.128906,0.515625 c -0.128907,0.433594 -0.339844,0.433594 -1.019532,0.445312 -0.152343,0 -0.304687,0 -0.304687,0.269532 0,0.105468 0.09375,0.140625 0.1875,0.140625 0.210937,0 0.46875,-0.02344 0.667969,-0.02344 h 1.464843 c 0.210938,0 0.457032,0.02344 0.667969,0.02344 0.08203,0 0.257813,0 0.257813,-0.269532 0,-0.140625 -0.117188,-0.140625 -0.328125,-0.140625 -0.679688,0 -0.714844,-0.105468 -0.714844,-0.210937 0,-0.08203 0.01172,-0.09375 0.05859,-0.28125 z m -2.027344,4.476562 c -0.07031,0.246094 -0.07031,0.28125 -0.269531,0.550782 -0.316406,0.398437 -0.949219,1.019531 -1.617187,1.019531 -0.597657,0 -0.925782,-0.539063 -0.925782,-1.382813 0,-0.785156 0.445313,-2.390625 0.714844,-3 0.492188,-0.996093 1.171875,-1.511718 1.722656,-1.511718 0.949219,0 1.136719,1.171875 1.136719,1.289062 0,0.01172 -0.04687,0.199219 -0.05859,0.222656 z m 129.588863,-4.476562 c 0,-0.07031 -0.0586,-0.128906 -0.1289,-0.128906 -0.11719,0 -0.67969,0.527343 -0.94922,1.019531 -0.25781,-0.644531 -0.70313,-1.03125 -1.32422,-1.03125 -1.61719,0 -3.36328,2.097656 -3.36328,4.21875 0,1.417969 0.83203,2.25 1.80469,2.25 0.76172,0 1.39453,-0.574219 1.6875,-0.902344 l 0.0234,0.01172 -0.55078,2.15625 -0.1289,0.515625 c -0.12891,0.433594 -0.33985,0.433594 -1.01953,0.445312 -0.15235,0 -0.30469,0 -0.30469,0.269532 0,0.105468 0.0937,0.140625 0.1875,0.140625 0.21094,0 0.46875,-0.02344 0.66797,-0.02344 h 1.46484 c 0.21094,0 0.45703,0.02344 0.66797,0.02344 0.082,0 0.25781,0 0.25781,-0.269532 0,-0.140625 -0.11719,-0.140625 -0.32812,-0.140625 -0.67969,0 -0.71485,-0.105468 -0.71485,-0.210937 0,-0.08203 0.0117,-0.09375 0.0586,-0.28125 z m -2.02734,4.476562 c -0.0703,0.246094 -0.0703,0.28125 -0.26953,0.550782 -0.31641,0.398437 -0.94922,1.019531 -1.61719,1.019531 -0.59765,0 -0.92578,-0.539063 -0.92578,-1.382813 0,-0.785156 0.44531,-2.390625 0.71484,-3 0.49219,-0.996093 1.17188,-1.511718 1.72266,-1.511718 0.94922,0 1.13672,1.171875 1.13672,1.289062 0,0.01172 -0.0469,0.199219 -0.0586,0.222656 z m -64.110351,-36.92578 c 0.01172,-0.0586 0.04687,-0.14063 0.04687,-0.21094 0,-0.14062 -0.152343,-0.14062 -0.175781,-0.14062 -0.01172,0 -0.527344,0.0352 -0.785156,0.0703 -0.246094,0.0117 -0.46875,0.0352 -0.726563,0.0586 -0.339843,0.0234 -0.445312,0.0352 -0.445312,0.29297 0,0.15235 0.152344,0.15235 0.292969,0.15235 0.726562,0 0.726562,0.1289 0.726562,0.26953 0,0.0586 0,0.082 -0.07031,0.33984 l -2.050782,8.20313 c -0.05859,0.22265 -0.05859,0.24609 -0.05859,0.32812 0,0.31641 0.246093,0.375 0.386718,0.375 0.410157,0 0.492188,-0.31641 0.609375,-0.76172 l 0.667969,-2.68359 c 1.03125,0.11719 1.652344,0.55078 1.652344,1.24219 0,0.082 0,0.14062 -0.04687,0.35156 -0.05859,0.22265 -0.05859,0.38672 -0.05859,0.46875 0,0.83203 0.550778,1.38281 1.277348,1.38281 0.66797,0 1.00781,-0.59766 1.125,-0.79687 0.30468,-0.53907 0.49218,-1.33594 0.49218,-1.39454 0,-0.0703 -0.0586,-0.1289 -0.15234,-0.1289 -0.12891,0 -0.14062,0.0586 -0.19922,0.28125 -0.19922,0.75 -0.5039,1.75781 -1.23047,1.75781 -0.29297,0 -0.48047,-0.14062 -0.48047,-0.69141 0,-0.26953 0.0586,-0.58593 0.11719,-0.80859 0.0586,-0.25781 0.0586,-0.26953 0.0586,-0.43359 0,-0.85547 -0.761724,-1.32422 -2.074224,-1.5 0.515625,-0.31641 1.03125,-0.86719 1.230469,-1.08985 0.820315,-0.91406 1.371095,-1.37109 2.039065,-1.37109 0.32812,0 0.41015,0.082 0.51562,0.16406 -0.52734,0.0586 -0.73828,0.4336 -0.73828,0.72656 0,0.33985 0.28125,0.45704 0.48047,0.45704 0.38672,0 0.72656,-0.32813 0.72656,-0.79688 0,-0.41016 -0.32812,-0.84375 -0.97265,-0.84375 -0.78516,0 -1.42969,0.5625 -2.449223,1.71094 -0.152344,0.17578 -0.679687,0.71484 -1.207031,0.91406 z M 83.709722,-9.5964406 c 0.01172,-0.058594 0.04687,-0.140625 0.04687,-0.2109375 0,-0.140625 -0.152344,-0.140625 -0.175781,-0.140625 -0.01172,0 -0.527344,0.035156 -0.785157,0.070312 -0.246093,0.011719 -0.46875,0.035156 -0.726562,0.058594 -0.339844,0.023437 -0.445313,0.035156 -0.445313,0.2929688 0,0.1523437 0.152344,0.1523437 0.292969,0.1523437 0.726563,0 0.726563,0.1289063 0.726563,0.2695313 0,0.058594 0,0.082031 -0.07031,0.3398437 l -2.050781,8.20312502 c -0.05859,0.22265625 -0.05859,0.24609375 -0.05859,0.328125 0,0.31640625 0.246094,0.375 0.386719,0.375 0.410156,0 0.492187,-0.31640625 0.609375,-0.76171875 l 0.667969,-2.68359377 c 1.03125,0.1171875 1.652343,0.5507813 1.652343,1.2421875 0,0.082031 0,0.140625 -0.04687,0.3515625 -0.05859,0.2226563 -0.05859,0.3867188 -0.05859,0.46875 0,0.83203127 0.550781,1.38281252 1.277343,1.38281252 0.667969,0 1.007813,-0.59765625 1.125,-0.796875 0.304688,-0.53906252 0.492188,-1.33593752 0.492188,-1.39453122 0,-0.070312 -0.05859,-0.1289063 -0.152344,-0.1289063 -0.128906,0 -0.140625,0.058594 -0.199219,0.28125 -0.199218,0.75 -0.503906,1.75781252 -1.230468,1.75781252 -0.292969,0 -0.480469,-0.140625 -0.480469,-0.69140625 0,-0.26953127 0.05859,-0.58593747 0.117187,-0.80859377 0.05859,-0.2578125 0.05859,-0.2695312 0.05859,-0.4335937 0,-0.8554688 -0.761719,-1.3242188 -2.074219,-1.5 0.515625,-0.3164063 1.03125,-0.8671875 1.230469,-1.0898438 0.820313,-0.9140625 1.371094,-1.3710937 2.039063,-1.3710937 0.328125,0 0.410156,0.082031 0.515625,0.1640625 -0.527344,0.058594 -0.738282,0.4335937 -0.738282,0.7265625 0,0.3398437 0.28125,0.4570312 0.480469,0.4570312 0.386719,0 0.726563,-0.328125 0.726563,-0.796875 0,-0.4101562 -0.328125,-0.84375 -0.972657,-0.84375 -0.785156,0 -1.429687,0.5625 -2.449218,1.7109375 -0.152344,0.1757813 -0.679688,0.7148438 -1.207032,0.9140625 z m 0,0"
         style="fill:#231f20;fill-opacity:1;fill-rule:nonzero;stroke:none" />
      <path
         id="path36"
         d="m 100.1775,-3.3034719 c 0.23437,0 0.49218,0 0.49218,-0.28125 0,-0.28125 -0.25781,-0.28125 -0.49218,-0.28125 h -7.769536 c -0.234375,0 -0.492187,0 -0.492187,0.28125 0,0.28125 0.257812,0.28125 0.492187,0.28125 z m 0,0"
         style="fill:#231f20;fill-opacity:1;fill-rule:nonzero;stroke:none" />
      <path
         id="path37"
         d="m 111.32789,-6.1862844 c 0,-0.070312 -0.0586,-0.1289062 -0.12891,-0.1289062 -0.11719,0 -0.67969,0.5273437 -0.94922,1.0195312 -0.25781,-0.6445312 -0.70312,-1.03125 -1.32422,-1.03125 -1.61719,0 -3.36328,2.0976563 -3.36328,4.21875 0,1.41796877 0.83203,2.25000002 1.80469,2.25000002 0.76172,0 1.39453,-0.57421875 1.6875,-0.90234375 l 0.0234,0.0117188 -0.55079,2.15625003 -0.1289,0.515625 c -0.12891,0.4335938 -0.33985,0.4335938 -1.01953,0.4453125 -0.15235,0 -0.30469,0 -0.30469,0.2695313 0,0.1054687 0.0937,0.140625 0.1875,0.140625 0.21094,0 0.46875,-0.023437 0.66797,-0.023437 h 1.46484 c 0.21094,0 0.45703,0.023437 0.66797,0.023437 0.082,0 0.25781,0 0.25781,-0.2695313 0,-0.140625 -0.11718,-0.140625 -0.32812,-0.140625 -0.67969,0 -0.71485,-0.1054687 -0.71485,-0.2109375 0,-0.082031 0.0117,-0.09375 0.0586,-0.28125 z m -2.02735,4.4765625 c -0.0703,0.2460938 -0.0703,0.28125 -0.26953,0.5507813 -0.31641,0.39843747 -0.94922,1.01953122 -1.61719,1.01953122 -0.59765,0 -0.92578,-0.5390625 -0.92578,-1.38281252 0,-0.7851562 0.44531,-2.390625 0.71485,-3 0.49218,-0.9960937 1.17187,-1.5117187 1.72265,-1.5117187 0.94922,0 1.13672,1.171875 1.13672,1.2890625 0,0.011719 -0.0469,0.1992187 -0.0586,0.2226562 z m 0,0"
         style="fill:#231f20;fill-opacity:1;fill-rule:nonzero;stroke:none" />
    </g>
    <rect
       id="rect37"
       x="0"
       y="0"
       width="1"
       height="1"
       style="fill:#ffffff;fill-opacity:1;fill-rule:nonzero"
       transform="matrix(360.64,0,0,-0.64,1.7973333,1.8293333)" />
    <rect
       id="rect38"
       x="0"
       y="0"
       width="1"
       height="1"
       style="fill:#ffffff;fill-opacity:1;fill-rule:nonzero"
       transform="matrix(0.64,0,0,-266.24,1.7973333,267.74933)" />
    <rect
       id="rect39"
       x="0"
       y="0"
       width="1"
       height="1"
       style="fill:#ffffff;fill-opacity:1;fill-rule:nonzero"
       transform="matrix(0.64,0,0,-266.24,361.95733,267.74933)" />
    <rect
       id="rect40"
       x="0"
       y="0"
       width="1"
       height="1"
       style="fill:#ffffff;fill-opacity:1;fill-rule:nonzero"
       transform="matrix(360.64,0,0,-0.64,1.7973333,268.06932)" />
  </g>
</svg>
